<svg xmlns="http://www.w3.org/2000/svg" width="87.66" height="73.7"><path fill="#231F20" d="M66.032 63.986c-1.12-.126-2.288-.157-3.399-.157l-1.764.006c-3.69 0-6.531-.233-6.744-3.161-.045-.615.197-1.266.453-1.955.279-.752.569-1.529.533-2.372-.043-1.043-.373-1.55-.754-2.136a8.396 8.396 0 01-.604-1.049c.097-.323.298-.56.527-.829.123-.145.246-.291.357-.449l.328-.474-.54-.199c-.499-.186-.804-.399-.905-.639-.15-.355.09-.903.367-1.538.33-.752.703-1.605.63-2.57l-.012-.151-.103-.113c-.609-.676-1.451-.959-2.195-1.209-1.091-.366-1.714-.617-1.838-1.513-.205-1.493 1.342-3.225 2.365-4.371.283-.316.531-.596.705-.822.396-.519.904-1.073 1.395-1.61 1.062-1.161 2.159-2.362 2.434-3.49.162-.663.102-1.35.042-2.015-.044-.497-.086-.967-.032-1.389.736-5.802 4.227-9.878 8.753-12.408v-1.044c-5.312 2.865-8.906 7.575-9.638 13.34-.066.518-.018 1.058.029 1.581.055.62.106 1.205-.02 1.725-.222.906-1.24 2.021-2.227 3.099-.504.551-1.023 1.121-1.443 1.669a15.05 15.05 0 01-.662.771c-1.134 1.268-2.847 3.186-2.584 5.086.205 1.487 1.391 1.886 2.438 2.237.619.208 1.258.423 1.71.852.006.687-.283 1.348-.563 1.988-.347.79-.674 1.536-.371 2.246.147.348.432.638.863.876-.287.339-.602.727-.718 1.324l-.026.138.057.129c.257.576.51.965.732 1.309.348.534.578.888.611 1.687.027.663-.219 1.324-.479 2.024-.279.748-.566 1.521-.508 2.33.291 3.979 4.518 3.988 7.613 3.988h.021l1.764-.006c1.116 0 2.295.021 3.399.152v-.888z"/><path fill="#5cb85c" d="M38.126 38.174c3.998-2.154 7.012-6.039 7.862-10.858 1.475-8.359-4.107-16.333-12.468-17.807-8.361-1.474-16.333 4.108-17.807 12.469-1.474 8.36 4.108 16.332 12.468 17.808 1.418.25 2.822.28 4.188.146.642.9 1.352 1.79 2.241 2.619 2.354 2.195 5.337 3.264 7.74 3.398.327.018.784.102 1.033-.18-.133-.231-3.332-4.333-5.257-7.595"/><path fill="#231F20" d="M42.792 46.42c-.113 0-.227-.009-.333-.017l-.132-.01c-2.831-.159-5.828-1.474-8.02-3.518-.744-.693-1.413-1.464-2.15-2.478a15.775 15.775 0 01-4.052-.174c-8.588-1.516-14.344-9.736-12.83-18.325a15.785 15.785 0 0115.56-13.073c.92 0 1.85.082 2.764.243a15.706 15.706 0 0110.21 6.505 15.718 15.718 0 012.62 11.819c-.816 4.632-3.606 8.597-7.682 10.947 1.492 2.453 3.599 5.278 4.525 6.521.288.386.468.631.499.685l.162.278-.213.241c-.317.356-.777.356-.928.356zm-10.209-6.959l.15.211c.761 1.066 1.434 1.854 2.182 2.552 2.044 1.906 4.833 3.132 7.46 3.279l.152.011c.041.003.083.007.125.009l-.096-.129c-.985-1.32-3.292-4.413-4.814-6.993l-.235-.399.408-.22c4.055-2.185 6.838-6.028 7.634-10.543a14.826 14.826 0 00-2.472-11.152 14.826 14.826 0 00-9.634-6.138 15.076 15.076 0 00-2.609-.229 14.894 14.894 0 00-14.681 12.336c-1.429 8.104 4.001 15.861 12.106 17.291 1.308.231 2.679.279 4.066.141l.258-.027z"/></svg>