<svg xmlns="http://www.w3.org/2000/svg" width="87.66" height="73.7"><path fill="#5cb85c" d="M43.831 52.7c8.74 0 15.849-7.11 15.849-15.85S52.57 21 43.831 21c-8.74 0-15.85 7.111-15.85 15.851S35.09 52.7 43.831 52.7"/><path fill="#231F20" d="M43.831 20.521c-9.003 0-16.329 7.325-16.329 16.329 0 9.003 7.325 16.328 16.329 16.328s16.328-7.325 16.328-16.328c-.001-9.004-7.325-16.329-16.328-16.329zm.751 31.663c.022-.073.046-.146.046-.228v-2.118a.798.798 0 00-1.594 0v2.118c0 .08.023.153.046.227-7.875-.384-14.198-6.706-14.582-14.581.073.022.146.046.226.046h2.119a.797.797 0 000-1.596h-2.119c-.08 0-.153.023-.226.046.384-7.876 6.707-14.198 14.582-14.582-.022.073-.046.146-.046.227v2.118a.798.798 0 001.594 0v-2.118c0-.081-.023-.154-.046-.228 7.879.384 14.206 6.716 14.582 14.598a.789.789 0 00-.301-.061h-2.119a.798.798 0 000 1.596h2.119a.774.774 0 00.301-.061c-.376 7.881-6.703 14.213-14.582 14.597z"/><path fill="#231F20" d="M54.336 26.61a.794.794 0 00-1.127.02l-8.581 8.886v-8.6a.798.798 0 00-1.594 0v8.929a1.387 1.387 0 00.797 2.525 1.39 1.39 0 001.365-1.146l9.16-9.486a.799.799 0 00-.02-1.128z"/></svg>