<svg xmlns="http://www.w3.org/2000/svg" width="87.66" height="73.7"><path fill="#5cb85c" d="M52.364 70.249c8.488 0 15.371-6.883 15.371-15.371 0-8.49-6.883-15.371-15.371-15.371-8.49 0-15.371 6.881-15.371 15.371 0 8.488 6.881 15.371 15.371 15.371"/><path fill="#231F20" d="M46.872 57.104c.715.018 1.193-.729 1.592-1.209 2.938-3.523 5.324-9.072 5.324-15.205 0-4.544-1.17-8.462-2.086-12.295.664-1.274.899-2.633 1.263-3.896 1.101-3.831 4.144-6.702 4.116-11.418-.022-4.308-2.623-6.914-6.86-6.643-4.012.259-7.123 2.115-10.101 3.459-2.924-.814-6.033-2.503-9.441-2.636-3.457-.134-6.303 1.96-6.533 5.38-.159 2.381.655 4.612 1.318 6.587.839 2.499 1.676 4.929 3.184 6.587-.599.535-6.747 25.723 5.873 30.85.065-.52 1.152-22.968 4.776-23.549s7.34 23.218 7.575 23.988"/><path fill="#FFF" d="M39.428 32.105c2.035 0 4.429 2.825 8.142 23.307.043-.055.084-.107.127-.158 3.188-3.824 5.092-9.27 5.092-14.562 0-3.748-.832-7.097-1.635-10.337-.145-.579-.287-1.153-.424-1.728l-.087-.362.173-.332c.443-.852.676-1.754.92-2.71.088-.339.174-.673.269-1.001.444-1.544 1.175-2.929 1.882-4.267 1.137-2.151 2.21-4.183 2.195-6.87-.02-3.601-1.938-5.667-5.264-5.667-.175 0-.352.006-.533.019-3.092.198-5.635 1.417-8.096 2.594-.561.268-1.111.531-1.656.778l-.333.148-.349-.097c-.991-.276-1.966-.635-2.997-1.015-2.003-.738-4.074-1.5-6.214-1.585a8.398 8.398 0 00-.274-.005c-2.944 0-5.043 1.789-5.222 4.452-.136 2.042.517 3.979 1.149 5.85l.119.353c.775 2.308 1.576 4.693 2.976 6.233l.679.746-.621.555c-.684 1.71-3.502 14.627-.329 22.924 1.004 2.625 2.516 4.547 4.505 5.736 1.494-22.333 4.411-22.798 5.517-22.976.096-.015.192-.023.289-.023"/></svg>