<svg xmlns="http://www.w3.org/2000/svg" width="87.66" height="73.7"><path fill="#5cb85c" d="M60.668 32.569c8.49 0 15.371-6.882 15.371-15.371S69.158 1.827 60.668 1.827c-8.488 0-15.37 6.882-15.37 15.371s6.882 15.371 15.37 15.371"/><path fill="#FFF" d="M55.449 22.75l.238-.103c.469-.202.776-.822.647-1.301-.097-.36.171-.875.521-1.002.481-.174.822-.829.689-1.322-.098-.359.171-.875.521-1.002.48-.175.821-.83.688-1.322-.097-.36.171-.875.521-1.002.481-.174.822-.83.689-1.321-.098-.361.171-.875.521-1.002.479-.176.822-.83.688-1.323-.096-.36.172-.874.521-1.001.481-.175.822-.83.688-1.323-.096-.36.172-.874.522-1.002.396-.144.711-.621.713-1.085l.002-.202 5.086 2.648-8.014 15.394-5.241-2.729z"/><path fill="#231F20" d="M63.464 6.64l-.284.546.012.006.043.16c.08.303-.151.748-.444.855-.544.196-.916.91-.767 1.47.082.3-.15.747-.443.854-.544.195-.916.909-.766 1.47.082.301-.151.747-.444.854-.544.196-.916.911-.765 1.471.08.301-.151.748-.445.854-.544.197-.915.911-.766 1.47.082.302-.15.748-.444.854-.544.197-.915.911-.765 1.47.08.301-.151.748-.445.854-.543.196-.915.911-.766 1.47.082.301-.15.748-.445.854-.543.197-.217.925-.217.925l4.379 2.278-6.914 3.957-1.861 3.483H15.83l9.379 39.079h18.039l9.003-38.812 1.499-2.806 6.887-3.942a.627.627 0 00.271-.325l.012.006 8.469-16.27-5.925-3.085zM16.655 33.446h33.913L30.764 70.507a.65.65 0 00.065.715h-5.106l-9.068-37.776zM42.73 71.222H31.813c.031-.036.073-.058.097-.101l19.161-35.854-8.341 35.955zm17.928-46.059l-4.904-2.553c.516-.223.862-.905.717-1.445-.08-.301.151-.748.444-.854.544-.197.916-.912.765-1.47-.08-.302.152-.748.445-.855.544-.196.916-.91.766-1.47-.082-.301.151-.748.444-.854.544-.197.916-.912.765-1.471-.08-.301.152-.748.445-.854.544-.198.916-.912.766-1.47-.082-.302.151-.748.443-.854.545-.198.916-.912.766-1.47-.08-.301.152-.748.444-.854.459-.167.792-.701.795-1.2l4.8 2.498-7.901 15.176z"/></svg>