<svg xmlns="http://www.w3.org/2000/svg" width="87.66" height="73.7"><path fill="#5cb85c" d="M35.239 69.129c8.489 0 15.371-6.882 15.371-15.371s-6.882-15.371-15.371-15.371-15.371 6.882-15.371 15.371 6.882 15.371 15.371 15.371"/><path fill="#231F20" d="M34.771 52.522l1.965-7.721L70.55 12.578a.652.652 0 011.076.296.65.65 0 01-.178.646L37.904 45.486l-1.958 7.69a.64.64 0 01-.241.349l.009.009"/><path fill="#231F20" d="M35.903 52.947c.231.833-2.538 2.329-6.186 3.341-3.648 1.011-6.792 1.156-7.023.322-.231-.833 2.538-2.329 6.186-3.342 3.647-1.011 6.792-1.155 7.023-.321"/><path fill="#FFF" d="M34.01 53.25c.156.563-1.972 1.645-4.752 2.415-2.781.772-5.162.94-5.318.378-.156-.562 1.972-1.645 4.752-2.416 2.781-.771 5.162-.94 5.318-.377"/><path fill="#231F20" d="M59.722 4.597a.647.647 0 00-.81.438l-13.254 44.4.209.134c-.607 1.666-.63 3.934-.646 6.863l-.003.509c-.021 3.554-4.171 5.362-4.213 5.381 0 0 4.97-1.306 4.994-5.377l.003-.509c.016-2.759.033-4.907.537-6.436l.258.165 13.36-44.758a.65.65 0 00-.435-.81z"/></svg>