<?xml version="1.0" encoding="iso-8859-1"?>
<!-- Generator: Adobe Illustrator 19.0.0, SVG Export Plug-In . SVG Version: 6.00 Build 0)  -->
<svg version="1.1" id="Layer_1" xmlns="http://www.w3.org/2000/svg" xmlns:xlink="http://www.w3.org/1999/xlink" x="0px" y="0px"
	 viewBox="0 0 512.002 512.002" style="enable-background:new 0 0 512.002 512.002;" xml:space="preserve">
<g>
	<g>
		<path d="M512.001,85.334c0-0.162-0.021-0.319-0.024-0.481c-0.009-0.388-0.029-0.774-0.059-1.162
			c-0.025-0.326-0.054-0.65-0.093-0.972c-0.044-0.363-0.102-0.723-0.165-1.083c-0.059-0.336-0.12-0.67-0.194-1.001
			c-0.077-0.341-0.168-0.678-0.261-1.016c-0.093-0.335-0.187-0.669-0.296-0.997c-0.109-0.328-0.232-0.651-0.357-0.975
			c-0.125-0.324-0.252-0.647-0.392-0.963c-0.14-0.316-0.295-0.627-0.452-0.937c-0.158-0.312-0.317-0.622-0.489-0.926
			c-0.167-0.295-0.347-0.584-0.53-0.873c-0.195-0.309-0.395-0.614-0.606-0.911c-0.188-0.265-0.385-0.525-0.586-0.783
			c-0.238-0.306-0.482-0.605-0.736-0.897c-0.106-0.122-0.197-0.253-0.306-0.373c-0.109-0.12-0.23-0.222-0.341-0.339
			c-0.261-0.275-0.53-0.54-0.805-0.801c-0.248-0.235-0.498-0.465-0.754-0.686c-0.26-0.224-0.528-0.437-0.799-0.649
			c-0.287-0.224-0.575-0.444-0.87-0.651c-0.266-0.186-0.539-0.36-0.813-0.534c-0.311-0.197-0.623-0.393-0.942-0.572
			c-0.288-0.162-0.583-0.311-0.879-0.46c-0.316-0.159-0.631-0.317-0.954-0.459c-0.322-0.143-0.65-0.269-0.98-0.396
			c-0.31-0.119-0.619-0.238-0.933-0.342c-0.347-0.115-0.701-0.214-1.055-0.312c-0.314-0.086-0.627-0.171-0.944-0.243
			c-0.351-0.079-0.707-0.144-1.065-0.206c-0.34-0.059-0.679-0.113-1.02-0.156c-0.335-0.041-0.673-0.071-1.012-0.097
			c-0.379-0.029-0.757-0.049-1.136-0.057c-0.161-0.004-0.318-0.024-0.48-0.024H21.334c-0.162,0-0.319,0.021-0.48,0.024
			c-0.38,0.009-0.758,0.029-1.136,0.057c-0.34,0.026-0.677,0.056-1.012,0.097c-0.342,0.042-0.681,0.097-1.02,0.156
			c-0.358,0.062-0.714,0.126-1.065,0.206c-0.317,0.072-0.63,0.157-0.944,0.243c-0.355,0.098-0.708,0.196-1.055,0.312
			c-0.314,0.104-0.623,0.223-0.933,0.342c-0.33,0.127-0.658,0.254-0.98,0.396c-0.322,0.142-0.638,0.3-0.954,0.459
			c-0.296,0.149-0.591,0.298-0.879,0.46c-0.319,0.18-0.63,0.375-0.942,0.572c-0.275,0.174-0.548,0.349-0.814,0.535
			c-0.295,0.207-0.583,0.427-0.869,0.65c-0.271,0.211-0.539,0.425-0.8,0.649c-0.257,0.221-0.506,0.451-0.754,0.686
			c-0.276,0.26-0.544,0.526-0.805,0.801c-0.111,0.117-0.232,0.219-0.341,0.339c-0.11,0.12-0.2,0.251-0.306,0.373
			c-0.254,0.292-0.498,0.591-0.736,0.897c-0.201,0.258-0.398,0.518-0.586,0.783c-0.211,0.298-0.41,0.603-0.606,0.911
			c-0.183,0.289-0.363,0.578-0.53,0.873c-0.172,0.303-0.332,0.613-0.489,0.926c-0.157,0.311-0.311,0.621-0.452,0.937
			c-0.141,0.316-0.267,0.639-0.392,0.963c-0.125,0.324-0.248,0.647-0.357,0.975c-0.109,0.329-0.203,0.663-0.297,0.998
			c-0.094,0.337-0.184,0.674-0.261,1.014c-0.075,0.331-0.136,0.666-0.195,1.003c-0.063,0.36-0.121,0.719-0.165,1.081
			c-0.04,0.323-0.069,0.647-0.094,0.974c-0.03,0.386-0.05,0.772-0.059,1.159c-0.004,0.162-0.024,0.319-0.024,0.482v341.333
			c0,0.095,0.013,0.186,0.014,0.28c0.005,0.395,0.032,0.789,0.06,1.183c0.022,0.323,0.038,0.648,0.074,0.967
			c0.038,0.332,0.097,0.659,0.151,0.989c0.06,0.37,0.113,0.741,0.192,1.104c0.06,0.276,0.14,0.547,0.211,0.821
			c0.103,0.398,0.2,0.797,0.325,1.186c0.086,0.268,0.194,0.53,0.291,0.795c0.138,0.377,0.269,0.756,0.427,1.122
			c0.134,0.31,0.292,0.611,0.441,0.915c0.15,0.305,0.29,0.616,0.453,0.913c0.192,0.35,0.411,0.686,0.623,1.026
			c0.15,0.239,0.29,0.485,0.449,0.718c0.23,0.338,0.487,0.661,0.738,0.987c0.172,0.223,0.336,0.452,0.517,0.668
			c0.239,0.286,0.5,0.557,0.756,0.832c0.226,0.244,0.448,0.491,0.685,0.724c0.23,0.225,0.477,0.438,0.72,0.654
			c0.294,0.263,0.587,0.525,0.896,0.772c0.074,0.059,0.138,0.125,0.213,0.183c0.164,0.128,0.339,0.232,0.506,0.354
			c0.331,0.243,0.663,0.482,1.008,0.706c0.262,0.17,0.528,0.326,0.795,0.483c0.332,0.195,0.666,0.386,1.01,0.564
			c0.294,0.152,0.59,0.291,0.888,0.428c0.329,0.151,0.66,0.298,0.998,0.433c0.322,0.129,0.647,0.244,0.974,0.356
			c0.326,0.112,0.652,0.219,0.985,0.316c0.35,0.101,0.702,0.189,1.056,0.271c0.319,0.075,0.638,0.147,0.962,0.207
			c0.381,0.071,0.763,0.125,1.146,0.175c0.306,0.04,0.611,0.08,0.921,0.107c0.411,0.035,0.821,0.051,1.232,0.062
			c0.206,0.006,0.407,0.031,0.615,0.031h469.333c0.208,0,0.409-0.025,0.615-0.031c0.411-0.012,0.822-0.027,1.232-0.062
			c0.31-0.027,0.615-0.067,0.921-0.106c0.383-0.05,0.765-0.104,1.147-0.175c0.324-0.06,0.643-0.132,0.962-0.207
			c0.354-0.083,0.705-0.17,1.056-0.271c0.333-0.096,0.659-0.204,0.985-0.316c0.327-0.112,0.652-0.228,0.974-0.357
			c0.338-0.135,0.668-0.281,0.997-0.433c0.299-0.137,0.596-0.276,0.889-0.428c0.343-0.177,0.677-0.368,1.008-0.563
			c0.267-0.157,0.534-0.314,0.796-0.484c0.345-0.224,0.677-0.462,1.007-0.705c0.167-0.123,0.343-0.227,0.507-0.355
			c0.075-0.058,0.139-0.125,0.213-0.184c0.308-0.246,0.6-0.508,0.894-0.771c0.243-0.217,0.49-0.43,0.721-0.655
			c0.237-0.232,0.458-0.479,0.683-0.722c0.257-0.276,0.518-0.548,0.758-0.834c0.18-0.215,0.344-0.444,0.515-0.667
			c0.252-0.327,0.508-0.65,0.739-0.988c0.159-0.232,0.298-0.478,0.448-0.716c0.213-0.341,0.432-0.678,0.624-1.028
			c0.163-0.295,0.302-0.604,0.451-0.908c0.149-0.306,0.309-0.608,0.443-0.92c0.158-0.366,0.289-0.744,0.427-1.12
			c0.097-0.266,0.205-0.528,0.292-0.797c0.125-0.388,0.222-0.786,0.325-1.183c0.071-0.275,0.152-0.547,0.212-0.824
			c0.078-0.362,0.132-0.732,0.191-1.101c0.054-0.331,0.113-0.66,0.151-0.992c0.036-0.318,0.052-0.641,0.074-0.964
			c0.027-0.395,0.055-0.79,0.06-1.186c0.001-0.094,0.014-0.185,0.014-0.279V85.334z M42.668,133.558l105.219,95.651L42.668,364.49
			V133.558z M281.139,246.978c-14.26,12.956-36.016,12.956-50.28-0.004L76.517,106.667h358.969L281.139,246.978z M179.551,257.994
			l22.612,20.555c30.54,27.748,77.136,27.748,107.672,0.004l22.616-20.559l114.598,147.34H64.953L179.551,257.994z M364.115,229.209
			l105.219-95.651v230.933L364.115,229.209z"/>
	</g>
</g>
<g>
</g>
<g>
</g>
<g>
</g>
<g>
</g>
<g>
</g>
<g>
</g>
<g>
</g>
<g>
</g>
<g>
</g>
<g>
</g>
<g>
</g>
<g>
</g>
<g>
</g>
<g>
</g>
<g>
</g>
</svg>
