<svg xmlns="http://www.w3.org/2000/svg" viewBox="0 0 512.002 512.002"><path d="M512.001 85.334c0-.162-.021-.319-.024-.481a21.52 21.52 0 00-.059-1.162 22.2 22.2 0 00-.093-.972 20.8 20.8 0 00-.165-1.083c-.059-.336-.12-.67-.194-1.001a22.584 22.584 0 00-.261-1.016 20.807 20.807 0 00-.296-.997 21.915 21.915 0 00-.357-.975 21.314 21.314 0 00-.392-.963c-.14-.316-.295-.627-.452-.937a22.685 22.685 0 00-.489-.926 20.71 20.71 0 00-.53-.873 19.988 19.988 0 00-.606-.911 21.837 21.837 0 00-.586-.783 21.123 21.123 0 00-.736-.897c-.106-.122-.197-.253-.306-.373-.109-.12-.23-.222-.341-.339-.261-.275-.53-.54-.805-.801a22.01 22.01 0 00-.754-.686c-.26-.224-.528-.437-.799-.649a21.388 21.388 0 00-.87-.651 21.87 21.87 0 00-.813-.534 20.725 20.725 0 00-.942-.572 21.548 21.548 0 00-.879-.46 20.359 20.359 0 00-.954-.459c-.322-.143-.65-.269-.98-.396-.31-.119-.619-.238-.933-.342a22.066 22.066 0 00-1.055-.312 22.142 22.142 0 00-.944-.243 21.77 21.77 0 00-1.065-.206 22.23 22.23 0 00-1.02-.156 22.5 22.5 0 00-1.012-.097 20.565 20.565 0 00-1.136-.057c-.161-.004-.318-.024-.48-.024H21.334c-.162 0-.319.021-.48.024a22.61 22.61 0 00-2.148.154c-.342.042-.681.097-1.02.156-.358.062-.714.126-1.065.206-.317.072-.63.157-.944.243-.355.098-.708.196-1.055.312-.314.104-.623.223-.933.342-.33.127-.658.254-.98.396-.322.142-.638.3-.954.459-.296.149-.591.298-.879.46-.319.18-.63.375-.942.572-.275.174-.548.349-.814.535-.295.207-.583.427-.869.65-.271.211-.539.425-.8.649-.257.221-.506.451-.754.686-.276.26-.544.526-.805.801-.111.117-.232.219-.341.339-.11.12-.2.251-.306.373-.254.292-.498.591-.736.897-.201.258-.398.518-.586.783-.211.298-.41.603-.606.911a20.71 20.71 0 00-.53.873c-.172.303-.332.613-.489.926-.157.311-.311.621-.452.937-.141.316-.267.639-.392.963-.125.324-.248.647-.357.975-.109.329-.203.663-.297.998-.094.337-.184.674-.261 1.014-.075.331-.136.666-.195 1.003-.063.36-.121.719-.165 1.081-.04.323-.069.647-.094.974-.03.386-.05.772-.059 1.159-.004.162-.024.319-.024.482v341.333c0 .095.013.186.014.28.005.395.032.789.06 1.183.022.323.038.648.074.967.038.332.097.659.151.989.06.37.113.741.192 1.104.06.276.14.547.211.821.103.398.2.797.325 1.186.086.268.194.53.291.795.138.377.269.756.427 1.122.134.31.292.611.441.915.15.305.29.616.453.913.192.35.411.686.623 1.026.15.239.29.485.449.718.23.338.487.661.738.987.172.223.336.452.517.668.239.286.5.557.756.832.226.244.448.491.685.724.23.225.477.438.72.654.294.263.587.525.896.772.074.059.138.125.213.183.164.128.339.232.506.354.331.243.663.482 1.008.706.262.17.528.326.795.483.332.195.666.386 1.01.564.294.152.59.291.888.428.329.151.66.298.998.433.322.129.647.244.974.356.326.112.652.219.985.316.35.101.702.189 1.056.271.319.075.638.147.962.207.381.071.763.125 1.146.175.306.04.611.08.921.107.411.035.821.051 1.232.062.206.006.407.031.615.031h469.333c.208 0 .409-.025.615-.031.411-.012.822-.027 1.232-.062.31-.027.615-.067.921-.106.383-.05.765-.104 1.147-.175.324-.06.643-.132.962-.207.354-.083.705-.17 1.056-.271.333-.096.659-.204.985-.316.327-.112.652-.228.974-.357.338-.135.668-.281.997-.433.299-.137.596-.276.889-.428.343-.177.677-.368 1.008-.563.267-.157.534-.314.796-.484.345-.224.677-.462 1.007-.705.167-.123.343-.227.507-.355.075-.058.139-.125.213-.184.308-.246.6-.508.894-.771.243-.217.49-.43.721-.655.237-.232.458-.479.683-.722.257-.276.518-.548.758-.834.18-.215.344-.444.515-.667.252-.327.508-.65.739-.988.159-.232.298-.478.448-.716.213-.341.432-.678.624-1.028.163-.295.302-.604.451-.908.149-.306.309-.608.443-.92.158-.366.289-.744.427-1.12.097-.266.205-.528.292-.797.125-.388.222-.786.325-1.183.071-.275.152-.547.212-.824.078-.362.132-.732.191-1.101.054-.331.113-.66.151-.992.036-.318.052-.641.074-.964.027-.395.055-.79.06-1.186.001-.094.014-.185.014-.279V85.334zM42.668 133.558l105.219 95.651L42.668 364.49V133.558zm238.471 113.42c-14.26 12.956-36.016 12.956-50.28-.004L76.517 106.667h358.969L281.139 246.978zm-101.588 11.016l22.612 20.555c30.54 27.748 77.136 27.748 107.672.004l22.616-20.559 114.598 147.34H64.953l114.598-147.34zm184.564-28.785l105.219-95.651v230.933L364.115 229.209z"/></svg>