<svg xmlns="http://www.w3.org/2000/svg" viewBox="0 0 60.006 60.006"><path d="M59.427 40.907c-2.008-3.796-8.98-7.912-9.287-8.092-.896-.51-1.831-.78-2.706-.78-1.301 0-2.366.596-3.011 1.68-1.02 1.22-2.285 2.646-2.592 2.867-2.378 1.611-4.237 1.429-6.295-.629L24.05 24.467c-2.045-2.045-2.233-3.928-.631-6.292.224-.31 1.649-1.575 2.869-2.595.778-.463 1.312-1.15 1.545-1.994.312-1.123.082-2.444-.652-3.733-.173-.296-4.289-7.269-8.085-9.276A4.944 4.944 0 0016.79.004a4.908 4.908 0 00-3.49 1.445l-2.536 2.537C6.75 7.998 5.296 12.547 6.443 17.504c.956 4.132 3.742 8.529 8.282 13.069L29.43 45.278c4.894 4.894 9.592 7.726 14.003 8.46a7.035 7.035 0 01-6.46 4.264 6.983 6.983 0 01-6.73-5.008l-.904-3.014c-.179-.595-.717-.994-1.338-.994s-1.159.399-1.338.995L25 55.522l-1.662-5.541c-.179-.595-.717-.994-1.338-.994s-1.159.399-1.338.995L19 55.522l-1.662-5.541A1.388 1.388 0 0016 48.987c-.621 0-1.159.399-1.338.995L13 55.522l-1.662-5.541c-.179-.595-.717-.994-1.338-.994s-1.159.399-1.338.995L7 55.522l-1.662-5.541c-.179-.594-.717-.994-1.338-.994s-1.159.399-1.338.995l-2.62 8.733a1.001 1.001 0 001.916.575L4 52.483l1.662 5.541c.179.595.717.994 1.338.994s1.159-.399 1.338-.995L10 52.483l1.662 5.541c.179.595.717.994 1.338.994s1.159-.399 1.338-.995L16 52.483l1.662 5.541c.179.595.717.994 1.338.994s1.159-.399 1.338-.995L22 52.483l1.662 5.541c.179.595.717.994 1.338.994s1.159-.399 1.338-.995L28 52.482l.326 1.087a8.97 8.97 0 008.646 6.434c3.942 0 7.293-2.544 8.521-6.072.072.001.146.008.218.008h.001c3.721 0 7.188-1.581 10.306-4.699l2.537-2.536a4.91 4.91 0 00.872-5.797z"/></svg>